<?xml version="1.0" encoding="utf-8"?>
<!-- Generator: Adobe Illustrator 16.0.0, SVG Export Plug-In . SVG Version: 6.00 Build 0)  -->
<!DOCTYPE svg PUBLIC "-//W3C//DTD SVG 1.1//EN" "http://www.w3.org/Graphics/SVG/1.1/DTD/svg11.dtd">
<svg version="1.1" id="Layer_1" xmlns="http://www.w3.org/2000/svg" xmlns:xlink="http://www.w3.org/1999/xlink" x="0px" y="0px"
	 width="120px" height="120px" viewBox="0 0 120 120" enable-background="new 0 0 120 120" xml:space="preserve">
<circle fill="#FF743F" cx="60" cy="60" r="60"/>
<path fill="#FFFFFF" d="M65.291,65.609c0.274,0.184,0.59,0.273,0.905,0.273s0.63-0.091,0.903-0.273
	c0.558-0.371,13.648-9.17,18.473-18.008c1.193-1.848,1.822-3.982,1.822-6.179c0-6.296-5.12-11.415-11.414-11.415
	c-4.629,0-8.057,3.84-9.784,5.848c-1.729-2.008-5.156-5.848-9.783-5.848c-6.295,0-11.416,5.119-11.416,11.415
	c0,2.194,0.631,4.329,1.823,6.179C51.642,56.439,64.734,65.236,65.291,65.609z M56.413,33.269c3.26,0,5.987,3.173,7.454,4.878
	c0.91,1.062,1.412,1.645,2.329,1.645s1.419-0.583,2.331-1.645c1.465-1.705,4.191-4.878,7.453-4.878c4.496,0,8.152,3.658,8.152,8.154
	c0,1.581-0.459,3.121-1.328,4.45c-0.022,0.037-0.047,0.076-0.068,0.115c-3.723,6.879-13.512,14.14-16.539,16.279
	c-3.028-2.14-12.814-9.396-16.54-16.277c-0.022-0.039-0.046-0.078-0.069-0.116c-0.868-1.329-1.328-2.867-1.328-4.45
	C48.258,36.929,51.916,33.269,56.413,33.269z M85.805,67.796c-2.981-1.745-5.482,0.845-6.426,1.819
	c-1.984,2.058-4.376,4.091-5.587,5.088c-0.514-0.229-1.08-0.36-1.678-0.365c-3.688-0.198-9.501-0.864-10.956-1.729
	c-1.563-0.932-2.814-1.838-3.92-2.638c-3.172-2.301-5.678-4.114-11.917-4.114c-1.81,0-3.396,0.5-4.929,0.986
	c-1.573,0.499-3.062,0.971-4.854,0.971c-1.978,0.002-3.587,1.61-3.587,3.588v9.131c0,1.979,1.609,3.588,3.588,3.588
	c3.411,0,8.743,0.175,9.92,0.568c2.12,0.705,7.091,3.653,8.827,4.729c0.021,0.014,0.044,0.027,0.066,0.041
	c0.628,0.348,1.341,0.533,2.061,0.533h16.582c1.755,0,3.706-1.623,4.383-2.746c2.175-3.609,9.972-13.428,10.05-13.524
	c0.069-0.089,0.131-0.185,0.182-0.286C88.618,71.412,87.842,68.99,85.805,67.796z M84.741,71.859
	c-1.083,1.367-8.009,10.14-10.155,13.703c-0.285,0.471-1.242,1.129-1.591,1.166H56.412c-0.156,0-0.313-0.037-0.451-0.106
	c-0.611-0.382-6.646-4.085-9.471-5.026c-2.102-0.699-9.492-0.734-10.951-0.734c-0.181,0-0.327-0.146-0.327-0.326v-9.133
	c0-0.182,0.146-0.328,0.327-0.328c2.298,0,4.18-0.594,5.839-1.118c1.417-0.449,2.642-0.837,3.944-0.837
	c5.182,0,6.997,1.314,10.004,3.494c1.161,0.842,2.477,1.793,4.165,2.799c0.849,0.505,2.253,0.902,3.829,1.21
	c3.385,0.661,7.556,0.915,8.66,0.976c0.027,0.003,0.057,0.003,0.086,0.003c0.539,0,0.979,0.438,0.979,0.979
	c0,0.539-0.438,0.978-0.979,0.978c-0.028,0-0.057,0.001-0.086,0.003L59.64,80.21c-0.981-0.037-3.302-1.679-4.842-2.769
	c-0.397-0.283-0.788-0.556-1.171-0.818c-0.833-0.577-1.629-1.096-2.357-1.459c-0.806-0.404-1.784-0.076-2.187,0.729
	c-0.403,0.807-0.077,1.786,0.729,2.188c0.841,0.42,1.939,1.198,3.104,2.022c2.446,1.731,4.758,3.368,6.759,3.368
	c0.028,0,0.059-0.002,0.087-0.002l12.354-0.649c2.314-0.027,4.191-1.92,4.191-4.24c0-0.524-0.095-1.027-0.271-1.493
	c1.31-1.083,3.663-3.103,5.69-5.201c1.39-1.438,1.943-1.556,2.432-1.271C84.592,70.865,84.909,71.361,84.741,71.859z"/>
</svg>
